<svg xmlns="http://www.w3.org/2000/svg" enable-background="new 0 0 68 68" viewBox="0 0 68 68" id="pdf-file">
  <path fill="#fff" d="M59.34719,18.5239v43.4695c0,1.79867-1.45811,3.25679-3.25678,3.25679H15.6983
		c-1.79867,0-3.25678-1.45811-3.25678-3.25679V6.00696c0-1.79867,1.45811-3.25678,3.25678-3.25678h27.87491L59.34719,18.5239z"></path>
  <path fill="#eaeaea" d="M54.28842 13.46526v51.78493h1.80199c1.79855 0 3.25678-1.45811 3.25678-3.25679V18.5239L54.28842 13.46526zM18.23828 2.75018H15.6983c-1.79855 0-3.25678 1.4581-3.25678 3.25678V61.9934c0 1.79868 1.45824 3.25679 3.25678 3.25679h2.53998V2.75018z"></path>
  <rect width="3.148" height="62.5" x="22.283" y="2.75" fill="#eaeaea"></rect>
  <path fill="#ff8b22" d="M59.34719 18.5239h-12.5172c-1.79867 0-3.25678-1.45811-3.25678-3.25678V2.75018L59.34719 18.5239zM37.14392 44.33741v10.03232c0 1.27406-1.03283 2.30688-2.30688 2.30688H10.65007c-1.10457 0-2-.89543-2-2v-10.6461c0-1.10457.89543-2 2-2h24.18697C36.1111 42.03052 37.14392 43.06335 37.14392 44.33741z"></path>
  <path fill="#f9770d" d="M15.33981,42.03073v14.64568h-4.68974c-1.10457,0-2-0.89543-2-2V44.03073c0-1.10457,0.89543-2,2-2H15.33981z"></path>
  <rect width="3.634" height="14.646" x="20" y="42.031" fill="#f9770d"></rect>
  <path d="M17.90112 46.26758c.67285 0 1.1958.15869 1.56836.47559.37207.31689.55859.78125.55859 1.39258 0 .61182-.18652 1.0791-.55859 1.40137-.37256.32275-.89551.48389-1.56836.48389h-1.33447v1.85986c0 .06104-.02197.11377-.06641.1582-.04492.04492-.09766.06689-.15869.06689h-.67529c-.06152 0-.11426-.02197-.15869-.06689-.04443-.04443-.06689-.09717-.06689-.1582v-5.38818c0-.06104.02246-.11377.06689-.1582s.09717-.06689.15869-.06689H17.90112zM16.56665 48.97852h1.29297c.31689 0 .56982-.06299.75879-.18799s.28369-.34326.28369-.65479c0-.31104-.09473-.52637-.28369-.64648-.18896-.11914-.44189-.1792-.75879-.1792h-1.29297V48.97852zM23.22241 46.26758c.41113 0 .76855.0542 1.07178.1626.30273.1084.55566.2627.75879.46289s.3584.44189.46729.72559c.1084.28369.17334.60059.1958.95117.02197.41113.02197.82275 0 1.23438-.02246.3501-.0874.66699-.1958.95068-.10889.28369-.26318.52539-.46289.72559-.2002.2002-.44922.35449-.74658.46289-.29785.1084-.64648.1626-1.04688.1626h-2.10156c-.06152 0-.11426-.02197-.15869-.06689-.04443-.04443-.06689-.09717-.06689-.1582v-5.38818c0-.06104.02246-.11377.06689-.1582s.09717-.06689.15869-.06689H23.22241zM24.59009 48.56982c-.01123-.17822-.0459-.34326-.10449-.49658-.05811-.15283-.14453-.28613-.2583-.40039-.11426-.11377-.25732-.20264-.42969-.2666s-.37793-.09619-.61719-.09619h-1.11768v3.75342h1.15967c.22754 0 .42529-.03223.5918-.09619.16699-.06348.30615-.15137.41699-.2627.11133-.11084.19629-.24463.25439-.40039.05859-.15527.09326-.32227.10449-.5C24.61206 49.39258 24.61206 48.98096 24.59009 48.56982zM30.59497 46.26758c.06104 0 .11426.02246.15869.06689s.06641.09717.06641.1582v.59229c0 .06104-.02197.11426-.06641.15869s-.09766.06641-.15869.06641h-2.66064v1.61816h2.49414c.06104 0 .11377.02246.1582.06689s.06689.09717.06689.1582v.59229c0 .06104-.02246.11426-.06689.15869s-.09717.06641-.1582.06641h-2.49414v1.91016c0 .06104-.02197.11377-.06641.1582-.04492.04492-.09766.06689-.15869.06689h-.67529c-.06152 0-.11426-.02197-.15869-.06689-.04443-.04443-.06689-.09717-.06689-.1582v-5.38818c0-.06104.02246-.11377.06689-.1582s.09717-.06689.15869-.06689H30.59497zM44.27905 40.59082c-.21582 0-.4375-.021-.66357-.06348-.92578-.17432-1.85449-.68945-2.61523-1.45068-.54883-.54834-1.72705-3.12061-3.05225-6.37109-.49219-.13086-1.00342-.24805-1.53223-.34521-2.02295-.37256-4.19775-.55518-6.19336-.62402-2.37744 2.625-4.67236 4.46094-5.45752 4.75-2.21875.81494-4.43164.16602-5.03564-1.47803-.30176-.82178-.13135-1.7749.46826-2.61572.54688-.76709 1.4043-1.39355 2.41406-1.76465.72852-.26709 3.58105-.48633 6.94824-.41016.99609-1.13672 2.00098-2.41895 2.88916-3.78711.70264-1.08301 1.32227-2.22168 1.85693-3.33496-1.27393-3.60449-2.20752-6.57178-2.20752-7.24756 0-2.36426 1.37207-4.21631 3.12402-4.21631 1.74805 0 3.11719 1.85205 3.11719 4.21631 0 .76123-.84619 3.92871-2.4292 7.35889.97021 2.67383 2.11426 5.66406 3.16016 8.25781 3.38281 1.0249 5.76074 2.6167 6.34277 3.19873.76172.76123 1.27637 1.69092 1.4502 2.6167.18994 1.01514-.05664 1.95313-.67773 2.57373C45.70483 40.33545 45.03149 40.59082 44.27905 40.59082zM39.823 33.30225c1.04053 2.49854 1.89502 4.354 2.23877 4.71484.54102.54053 1.2085.91846 1.83154 1.03613.30469.05664.87158.1001 1.23193-.25977.36328-.36328.32129-.93066.26367-1.23682-.1167-.62256-.49414-1.29053-1.03613-1.83252C43.98804 35.35986 42.29517 34.21631 39.823 33.30225zM28.18823 31.70313c-2.6499.00342-4.67432.19141-5.05908.33301-.71924.26416-1.34229.71143-1.71045 1.22754-.18066.25293-.45703.74902-.28125 1.22705l0 0c.30322.82666 1.72754 1.09375 3.10986.5874C24.66577 34.92334 26.29761 33.64746 28.18823 31.70313zM31.46704 30.29395c1.75391.09912 3.56104.28564 5.22021.59082.19385.03613.38623.07422.57568.11426-.76123-1.92432-1.54248-3.99023-2.25977-5.96094-.39893.74902-.83105 1.49268-1.29639 2.20898C33.01294 28.31641 32.24927 29.34131 31.46704 30.29395zM35.22241 13.13184c-.88037 0-1.62402 1.24414-1.62402 2.71631 0 .55322.64209 2.625 1.57666 5.29639 1.10693-2.68896 1.66455-4.8999 1.66455-5.29639C36.8396 14.40137 36.08374 13.13184 35.22241 13.13184z"></path>
  <path d="M59.8894,18.01392c-0.09521-0.1004-15.63281-15.64783-15.823-15.81653C43.90747,2.05707,43.67261,2,43.56958,2H15.69995
		c-2.21143,0-4.01025,1.79883-4.01025,4.01025v35.2749h-1.03955c-1.5166,0-2.75,1.2334-2.75,2.75v10.646
		c0,1.51611,1.2334,2.75,2.75,2.75h1.03955V62c0,2.20557,1.79883,4,4.01025,4H56.0896c2.21143,0,4.01025-1.79443,4.01025-4V18.53027
		C60.09985,18.38947,60.02661,18.15881,59.8894,18.01392z M44.323,4.56543l13.21387,13.21289H46.82983
		c-1.38232,0-2.50684-1.12451-2.50684-2.50635V4.56543z M9.40015,54.68115v-10.646c0-0.68945,0.56055-1.25,1.25-1.25h24.18701
		c0.8584,0,1.55664,0.69824,1.55664,1.55664v10.03271c0,0.8584-0.69824,1.55664-1.55664,1.55664c-8.15453,0-12.50928,0-24.18701,0
		C9.96069,55.93115,9.40015,55.37061,9.40015,54.68115z M58.59985,62c0,1.37842-1.12598,2.5-2.51025,2.5H15.69995
		c-1.38428,0-2.51025-1.12158-2.51025-2.5v-4.56885h21.64746c1.68555,0,3.05664-1.37109,3.05664-3.05664V44.3418
		c0-1.68555-1.37109-3.05664-3.05664-3.05664H13.1897V6.01025c0-1.38428,1.12598-2.51025,2.51025-2.51025H42.823v11.77197
		c0,2.20898,1.79736,4.00635,4.00684,4.00635h11.77002V62z"></path>
</svg>
